<svg width="150" height="61" viewBox="0 0 150 61" fill="none" xmlns="http://www.w3.org/2000/svg">
<path fill-rule="evenodd" clip-rule="evenodd" d="M72.7843 47.543C72.9908 48.096 75.5252 47.7624 76.2021 47.8185L76.2347 48.5933L71.5617 48.6238L71.5976 41.7795L76.1037 41.7831L76.0666 42.5891L73.2231 42.5769C72.4216 42.7045 72.9915 42.6059 72.7863 42.8546L76.3251 42.7956L76.3023 41.542L71.3271 41.5452L71.3389 48.8896L76.4615 48.8547L76.4452 47.5946L72.7843 47.5425V47.543Z" fill="#DDF4FA"/>
<path fill-rule="evenodd" clip-rule="evenodd" d="M59.9777 48.9081C59.5482 48.4761 59.9678 48.7367 59.3734 48.5985L55.0607 48.6123L55.0302 41.7756L59.8314 41.8862C59.5586 41.4825 60.1991 41.5551 59.3626 41.542L54.7651 41.5782L54.7755 48.8837L59.9777 48.9083V48.9081Z" fill="#DDF4FA"/>
<path fill-rule="evenodd" clip-rule="evenodd" d="M56.4263 45.8827L59.4311 45.8128L59.4465 44.6264L56.2642 44.6221C56.4216 44.9932 56.2038 44.8751 57.6684 44.8702C58.1673 44.8684 58.6742 44.8618 59.167 44.8618L59.1703 45.5889L56.4268 45.8829L56.4263 45.8827Z" fill="#DDF4FA"/>
<path fill-rule="evenodd" clip-rule="evenodd" d="M120.551 44.0373L124.186 48.9034L125.733 48.8539L125.729 41.5373L124.201 41.5465L124.154 46.4977L120.536 41.5332L118.984 41.5554L118.985 48.8871L120.509 48.8844L120.551 44.0373Z" fill="#DDF4FA"/>
<path fill-rule="evenodd" clip-rule="evenodd" d="M111.084 42.7404C114.082 42.0001 115.035 46.8948 112.096 47.6599C109.027 48.4589 108.041 43.4917 111.084 42.7404ZM107.743 46.0453C108.545 50.5529 116.28 49.8179 115.392 44.3823C114.637 39.7661 106.764 40.5457 107.743 46.0453Z" fill="#DDF4FA"/>
<path fill-rule="evenodd" clip-rule="evenodd" d="M99.9274 42.8693C100.943 42.7158 102.773 42.5644 102.709 44.0397C102.649 45.415 100.898 45.2221 99.924 45.0834L99.9274 42.8691V42.8693ZM102.789 46.2095C104.308 45.3985 104.887 43.5272 103.64 42.2677C102.628 41.2452 99.8159 41.4246 98.3936 41.5691L98.4354 48.8975L99.9312 48.8536L99.9269 46.5227C101.945 46.0863 101.559 47.8684 102.934 48.8995L104.532 48.8199L102.789 46.2097V46.2095Z" fill="#DDF4FA"/>
<path fill-rule="evenodd" clip-rule="evenodd" d="M149.678 42.3814C147.159 39.5697 142.79 42.7858 145.101 45.0114C146.054 45.9292 148.451 45.7706 148.372 46.9519C148.245 48.8487 145.53 46.8949 145.167 46.7547L144.424 47.8511C145.734 49.2888 149.03 49.6036 149.788 47.6046C150.983 44.453 146.772 44.8839 146.099 43.7148C146.08 41.7533 148.27 43.1313 149.018 43.4188L149.677 42.3816L149.678 42.3814Z" fill="#DDF4FA"/>
<path fill-rule="evenodd" clip-rule="evenodd" d="M85.3654 46.8534C84.3967 47.2044 83.9799 48.1016 82.4209 47.4643C80.6017 46.7204 80.6336 43.5555 82.5521 42.8937C83.9975 42.3953 84.3777 42.967 85.4255 43.5946L86.2836 42.6612C84.641 40.1712 79.5862 41.2079 79.5098 45.1194C79.4234 49.5436 85.0035 49.9073 86.2603 47.6884L85.3651 46.8534H85.3654Z" fill="#DDF4FA"/>
<path fill-rule="evenodd" clip-rule="evenodd" d="M140.361 46.832C139.362 47.2441 138.917 48.0682 137.418 47.4499C135.517 46.6655 135.718 43.523 137.528 42.89C138.992 42.3777 139.354 42.9987 140.399 43.5893L141.28 42.6661C139.312 40.0867 134.543 41.3717 134.514 45.1208C134.485 48.955 138.977 50.2568 141.236 47.7832L140.361 46.8322V46.832Z" fill="#DDF4FA"/>
<path fill-rule="evenodd" clip-rule="evenodd" d="M91.4477 42.8396L91.4459 48.8745L92.9894 48.8677L92.9815 42.8274L95.0658 42.7799L95.0563 41.54L89.3369 41.5538L89.3833 42.8176L91.4477 42.8396Z" fill="#DDF4FA"/>
<path fill-rule="evenodd" clip-rule="evenodd" d="M129.592 48.9048L131.117 48.8688L131.11 41.5303L129.59 41.5493L129.592 48.9048Z" fill="#DDF4FA"/>
<path fill-rule="evenodd" clip-rule="evenodd" d="M63.3689 48.5965C63.9407 48.5237 63.7457 47.7423 63.7358 47.1237C63.7141 45.7674 63.8183 42.8841 63.6817 41.8629L64.5556 41.8731C64.5484 43.1779 64.3222 46.6293 64.6588 47.6927C65.3933 48.0277 66.8803 47.9745 67.6997 47.844L67.759 48.577L63.3604 48.5096C63.6363 48.9658 62.9802 48.8729 63.829 48.8973L68.039 48.8708L68.07 47.5964L64.9053 47.5575L64.8813 41.5332L63.3685 41.5619L63.3689 48.5965Z" fill="#DDF4FA"/>
<path fill-rule="evenodd" clip-rule="evenodd" d="M59.9773 48.9083L59.949 47.5756L56.2899 47.5468L56.4261 45.883L59.1697 45.5889L59.1663 44.8618C58.6737 44.8618 58.1666 44.8684 57.6677 44.8702C56.2031 44.8752 56.4209 44.9932 56.2635 44.6221L56.3132 42.8309L59.838 42.8108L59.8305 41.886L55.0293 41.7754L55.0598 48.6121L59.3725 48.5983C59.9669 48.7365 59.5473 48.4759 59.9768 48.9079L59.9773 48.9083Z" fill="#DDF4FA"/>
<path fill-rule="evenodd" clip-rule="evenodd" d="M72.7844 47.5419L72.8393 45.9103L76.0083 45.8771L75.9864 44.5868L72.8549 44.5552L72.7862 42.8535C72.9913 42.6047 72.4214 42.7033 73.2229 42.5758L76.0665 42.588L76.1035 41.7819L71.5975 41.7783L71.5615 48.6227L76.2345 48.5922L76.2019 47.8173C75.5248 47.7612 72.9906 48.0948 72.7842 47.5419H72.7844Z" fill="#DDF4FA"/>
<path fill-rule="evenodd" clip-rule="evenodd" d="M63.3687 48.5956L63.3599 48.509L67.7585 48.5764L67.6992 47.8434C66.8799 47.9739 65.3928 48.027 64.6583 47.6921C64.3215 46.6287 64.5477 43.1772 64.5551 41.8725L63.6812 41.8623C63.8181 42.8834 63.7136 45.7665 63.7353 47.1231C63.7452 47.7416 63.9402 48.523 63.3685 48.5958L63.3687 48.5956Z" fill="#DDF4FA"/>
<path fill-rule="evenodd" clip-rule="evenodd" d="M9.52858 28.1302C9.74728 27.8228 11.8325 26.7802 12.278 26.6418C12.8333 26.4693 12.3468 26.3777 12.7887 26.6565C13.3059 24.6113 14.6328 24.2918 16.529 23.8991C18.2155 23.5502 20.5316 23.1548 22.2253 23.0162L22.3409 16.54C21.4887 16.9302 19.4915 17.2667 18.4778 17.5546C16.6088 18.0856 8.5294 20.4701 7.97778 21.5674C7.53722 22.444 8.23787 25.8129 8.56219 27.0283C8.77003 27.8072 8.69246 28.1609 9.52858 28.1302Z" fill="#F2F2EB"/>
<path fill-rule="evenodd" clip-rule="evenodd" d="M9.18194 6.55159C8.88657 6.82525 8.85355 11.977 9.2473 12.3656C9.65122 12.7643 14.5309 12.75 14.9651 12.5395L15.3455 12.3006C15.5326 11.448 15.5869 7.01862 15.2976 6.29128C14.3378 6.04974 10.2987 6.05019 9.27331 6.26188L9.18171 6.55159H9.18194Z" fill="#F2F2EB"/>
<path fill-rule="evenodd" clip-rule="evenodd" d="M24.4504 15.8444C24.2486 17.7001 24.1962 19.8626 24.5004 21.6986C24.8609 23.8747 24.8412 24.3884 26.1161 26.164C27.7566 28.4487 33.085 28.6361 35.7192 28.7406C35.2241 28.3643 34.3882 28.1128 33.7524 27.6227C33.0651 27.093 32.7854 26.7925 32.2548 26.1273C30.3641 23.7571 30.2926 18.7576 30.5441 15.82C30.8128 12.6815 31.7382 12.2767 32.0702 11.2578C29.5214 11.9456 25.1266 12.8735 24.4504 15.8444Z" fill="#F2F2EB"/>
<path fill-rule="evenodd" clip-rule="evenodd" d="M3.62666 0.370596C3.5285 1.29108 3.37041 4.42524 3.72526 5.14512C4.27529 5.39367 5.39615 5.25435 6.04411 5.2591C6.45708 5.26204 8.17501 5.08903 8.29872 5.3611C9.11155 4.92891 8.80307 3.64724 8.80216 2.83735C8.80126 2.04669 9.05795 0.71278 8.45478 0.195773C7.94614 -0.0468997 3.79696 -0.139627 3.62643 0.370596H3.62666Z" fill="#F2F2EB"/>
<path fill-rule="evenodd" clip-rule="evenodd" d="M4.18609 9.55419C3.61593 9.38321 1.67772 9.42912 0.981364 9.45174C-0.351865 9.49471 0.0606553 10.6626 0.0590722 11.8131C0.0570367 13.2287 -0.262078 13.8056 1.33169 13.7886C2.15108 13.7798 3.60168 13.9456 4.29125 13.6161C4.63909 12.9261 4.60449 10.1845 4.18609 9.55442V9.55419Z" fill="#F2F2EB"/>
<path fill-rule="evenodd" clip-rule="evenodd" d="M22.3407 16.54L22.2251 23.0161C22.4827 23.3158 22.7059 25.3397 23.8557 26.6976C26.5118 29.8338 32.5928 29.7867 36.2008 30.1617C34.0283 30.7843 28.7895 30.4607 26.574 29.7322C23.5907 28.7514 22.4646 27.268 21.0276 24.6553C19.9397 24.6176 17.2904 25.0844 16.1567 25.3585C12.5352 26.2339 14.1036 30.1262 15.9688 32.2849C17.854 34.4672 19.3915 33.6731 19.7726 34.0137C20.0232 34.4866 19.9836 34.6884 19.719 35.1371C16.1158 36.6716 11.953 30.2282 12.7885 26.6564C12.3465 26.3778 12.833 26.4694 12.2778 26.6417C11.8322 26.7801 9.74679 27.8227 9.52832 28.1301C10.0831 31.2041 13.0913 34.7264 14.4261 37.7393C16.3204 42.0151 14.9047 45.0932 13.2057 49.0029C17.8977 50.4469 25.0919 54.3317 29.4431 57.1449C30.9869 58.143 32.7763 59.692 34.154 60.4989C34.2578 52.671 33.8587 55.9635 35.8473 48.662C33.0424 47.6875 30.4746 47.379 27.6971 45.8744C25.6655 44.7736 22.9517 42.5566 22.3789 40.1961C24.5297 42.0954 24.809 43.3701 28.4199 44.9326C31.0475 46.0695 33.848 46.8803 36.6776 47.3804C39.0459 47.799 43.9297 49.0999 45.6646 47.0481C46.7045 45.8185 45.9724 43.864 46.1397 42.4451C46.3272 40.8551 48.0395 40.5448 46.5817 38.7308C47.0996 38.0853 48.028 38.0028 47.7769 36.7507C47.6279 36.0069 46.9666 34.9202 47.2459 34.2374C47.8595 33.3918 52.8939 34.6913 49.2481 29.8582C48.6685 29.0897 47.876 29.3175 46.9137 29.2774C43.1637 29.1216 39.4503 28.9226 35.7184 28.741C33.0843 28.6365 27.7557 28.449 26.1153 26.1643C24.8404 24.3887 24.8601 23.8751 24.4996 21.6989C24.1956 19.8627 24.2479 17.7004 24.4496 15.8447L22.3402 16.54H22.3407Z" fill="#AAEAF9"/>
<path fill-rule="evenodd" clip-rule="evenodd" d="M31.9292 19.9851C32.4973 29.1108 37.438 27.5649 46.8046 27.8395C48.8909 27.9006 56.1249 28.4789 57.578 27.6554C60.2248 26.1559 59.8829 21.2306 59.6786 18.6216C59.4445 15.6299 58.776 12.2607 55.3485 11.5422C52.6391 10.9743 47.7325 10.8011 44.8476 10.6672C35.8015 10.2472 31.2385 8.88933 31.9292 19.9849V19.9851Z" fill="#AAEAF9"/>
<path fill-rule="evenodd" clip-rule="evenodd" d="M15.7734 5.22882C16.5772 5.7845 17.2847 5.31295 17.2921 6.85674C17.3281 14.4318 17.9715 13.6183 11.2321 13.6525C9.89479 13.6593 9.5309 12.9559 9.18396 14.1227C8.76986 15.5156 8.28633 18.3508 8.36186 19.7715C8.83364 19.6967 11.895 18.2472 12.7478 17.9333C15.9973 16.7373 18.8825 15.804 22.2761 15.0348C23.8436 14.6795 23.2359 14.9848 24.141 13.7839C26.6014 10.5199 30.5767 9.00008 34.5807 8.68888C36.4838 8.54097 45.8101 9.09439 46.2769 8.93608C45.5545 7.06051 42.4036 4.58607 40.7045 3.5179C35.7468 0.401382 28.4657 -0.00412906 22.8804 1.58218C21.3079 2.02885 16.6577 3.96615 15.7732 5.22882H15.7734Z" fill="#AAEAF9"/>
<path fill-rule="evenodd" clip-rule="evenodd" d="M67.1633 17.7265L64.5579 17.7231L64.54 32.6119L67.2296 32.6202C67.2714 30.9679 67.2232 29.3011 67.2232 27.6444C67.2232 26.9284 67.0667 23.3374 67.3947 22.9767L74.991 32.7917L77.5896 32.7905L77.5672 17.5664L74.5604 17.5827L74.5902 27.2876C73.826 26.9847 67.8167 17.9115 67.1633 17.7268V17.7265Z" fill="#F2F2EB"/>
<path fill-rule="evenodd" clip-rule="evenodd" d="M118.719 31.3857C118.709 30.9087 118.876 31.3357 118.931 30.7968L118.909 24.2924L112.92 24.3512L112.915 26.431C113.603 26.6589 115.271 26.5031 116.105 26.54C115.197 26.6702 113.373 26.4726 112.99 26.7046L116.153 26.7214L116.112 29.5984C112.147 31.7759 107.792 29.0314 108.335 24.3736C108.55 22.533 109.766 20.9938 111.481 20.3983C113.923 19.5506 115.136 20.5019 117.089 21.3265L118.583 19.0216C117.899 18.1799 115.489 17.4464 114.407 17.3383C112.638 17.1612 111.054 17.3908 109.431 18.1041C103.782 20.5876 102.963 29.3822 109.467 32.244C112.926 33.7656 115.544 33.0317 118.718 31.386L118.719 31.3857Z" fill="#F2F2EB"/>
<path fill-rule="evenodd" clip-rule="evenodd" d="M82.8258 25.7476C83.3928 22.6087 87.8844 22.5517 87.9694 25.7547L82.8258 25.7476ZM90.9202 27.8114C91.7611 24.9828 89.854 21.8106 86.9157 21.1975C83.9856 20.5862 80.9794 21.9671 80.0556 24.7763C79.06 27.8032 80.0105 30.4989 82.5282 32.1462C84.6672 33.5457 89.0491 33.2933 90.4871 31.1774C90.3019 30.6907 89.2773 29.601 88.7689 29.4051C87.5332 30.2652 86.7405 30.9473 84.983 30.4991C83.8289 30.2049 82.7408 29.155 82.7849 27.8625L90.9202 27.8114Z" fill="#F2F2EB"/>
<path fill-rule="evenodd" clip-rule="evenodd" d="M124.099 25.7467C124.494 22.6991 129.2 22.4992 129.25 25.7555L124.099 25.7467ZM132.142 27.8203C132.751 26.3177 132.054 22.1077 128.311 21.2193C121.263 19.546 118.283 29 123.822 32.1609C126.179 33.5065 130.054 33.3763 131.78 31.125L130.184 29.4114C129.032 29.695 128.684 30.9986 126.375 30.5293C125.179 30.286 124.023 29.1502 124.076 27.864L132.142 27.8203Z" fill="#F2F2EB"/>
<path fill-rule="evenodd" clip-rule="evenodd" d="M96.0557 27.0705L91.9351 32.792L95.3533 32.7954L97.8038 29.388L100.044 32.7868L103.778 32.7465L99.7492 26.9536L103.867 21.2016L100.565 21.1826L97.9974 24.6354L95.7911 21.2027L91.9396 21.2215L96.0557 27.0705Z" fill="#F2F2EB"/>
<path fill-rule="evenodd" clip-rule="evenodd" d="M137.093 22.614C136.875 22.7673 136.89 22.618 136.916 22.8381L136.941 21.4074L134.314 21.3705L134.313 32.633L136.948 32.6165C136.946 31.2145 136.932 29.8374 136.934 28.4636C136.934 27.6694 136.848 25.775 137.14 25.0947C137.338 24.6336 137.217 24.8808 137.311 24.9403C138.26 24.2715 138.147 23.6202 139.908 23.7938C140.925 23.894 141.519 24.6854 141.66 25.6617C141.841 26.9119 141.451 32.2356 141.82 32.7815C142.079 31.5173 141.921 27.4351 141.898 25.92L141.896 32.6207L144.557 32.6178L144.547 26.2402C144.543 25.9162 144.559 25.5441 144.54 25.2275C144.508 24.6913 144.375 24.6076 144.598 24.252C144.138 22.7365 143.062 21.5157 141.475 21.1633C140.562 20.9607 139.542 21.012 138.711 21.3999C137.359 22.0307 137.26 23.1133 137.093 22.614Z" fill="#F2F2EB"/>
</svg>
